<svg id="Ebene_1" data-name="Ebene 1" xmlns="http://www.w3.org/2000/svg" viewBox="0 0 100 100"><defs><style>.cls-1{font-size:4.61px;font-family:ComicSansMS, Comic Sans MS;}</style></defs><text class="cls-1" transform="translate(15 41.39)">Aufmerksamkeit mehr auf die <tspan x="0" y="5.53">Ganzheitlichkeit der SE lenken </tspan><tspan x="0" y="11.07">(nicht nur Code, Programmiersprache, </tspan><tspan x="0" y="16.6">QS sondern auch Produkt, Sicherheit, </tspan><tspan x="0" y="22.13">Verteilung, etc.)</tspan></text><g id="g3"><path id="path5" d="M57.38,20.56c25.53,2.52,44.81,19,43.06,36.74S76.57,87.44,51,84.92a62.82,62.82,0,0,1-21.72-6.09c-13.43,3.6-32,11.07-32,11.07S9.47,84.51,15,77.05a19.37,19.37,0,0,0,2.95-6C11,64.62,7.15,56.55,8,48.18c1.75-17.77,23.87-30.13,49.4-27.62m-.25,2.57c-24.08-2.38-45,9-46.59,25.31-.71,7.23,2.54,14.61,9.16,20.76l1.18,1.1-.47,1.54a22,22,0,0,1-3.34,6.74c-.46.62-.95,1.22-1.48,1.81,4.37-1.49,8.94-2.94,13.07-4l.94-.26.87.44a60.71,60.71,0,0,0,20.82,5.83c24.08,2.37,45-9,46.59-25.31S81.21,25.5,57.13,23.13Z"/></g></svg>