<svg id="Ebene_1" data-name="Ebene 1" xmlns="http://www.w3.org/2000/svg" viewBox="0 0 100 100"><defs><style>.cls-1{font-size:12.17px;font-family:ComicSansMS, Comic Sans MS;}</style></defs><text class="cls-1" transform="translate(15.97 46)">Sich an der <tspan x="0" y="14.61">CoP-OE </tspan><tspan x="0" y="29.21">orientieren</tspan></text><g id="g3"><path id="path5" d="M48,90.19C22.38,88.49,2.59,72.66,3.77,54.85c.56-8.39,5.67-15.73,13.59-21a19.63,19.63,0,0,0-1.93-6.37C11.19,19.25.05,11.94.05,11.94s17.13,10.41,29.8,16.17a62.89,62.89,0,0,1,22.41-2.45c25.6,1.7,45.4,17.52,44.22,35.34S73.58,91.88,48,90.19m.17-2.58C72.29,89.22,92.82,77.2,93.91,60.83s-17.67-31-41.82-32.6A60.57,60.57,0,0,0,30.6,30.57l-.93.28-.89-.4c-3.89-1.77-8.16-3.95-12.23-6.13a22.93,22.93,0,0,1,1.17,2,22,22,0,0,1,2.19,7.21l.21,1.59L18.78,36c-7.54,5-12,11.73-12.44,19C5.25,71.39,24,86,48.15,87.61Z"/></g></svg>