<svg id="Ebene_1" data-name="Ebene 1" xmlns="http://www.w3.org/2000/svg" viewBox="0 0 100 100"><defs><style>.cls-1{font-size:9.98px;font-family:ComicSansMS, Comic Sans MS;}</style></defs><text class="cls-1" transform="translate(17.1 42.71)">Mehr <tspan x="0" y="11.97">Impulsvorträge!</tspan></text><g id="g3"><path id="path5" d="M52.54,14.55C78.2,14.55,99,29,99,46.88S78.2,79.22,52.54,79.22a62.9,62.9,0,0,1-22.2-3.93c-13,4.9-30.8,14.16-30.8,14.16s11.59-6.56,16.37-14.53a19.48,19.48,0,0,0,2.35-6.22C10.7,62.94,6.09,55.29,6.09,46.88c0-17.86,20.8-32.33,46.45-32.33m0,2.57c-24.19,0-43.88,13.35-43.88,29.76,0,7.27,4,14.29,11.16,19.77l1.28,1-.32,1.58a21.79,21.79,0,0,1-2.66,7c-.39.66-.83,1.31-1.3,2,4.21-1.91,8.61-3.81,12.61-5.31l.91-.34.91.34a60.63,60.63,0,0,0,21.29,3.76c24.2,0,43.88-13.35,43.88-29.76S76.74,17.12,52.54,17.12Z"/></g></svg>