<svg id="Ebene_1" data-name="Ebene 1" xmlns="http://www.w3.org/2000/svg" viewBox="0 0 100 100"><defs><style>.cls-1{font-size:7.39px;font-family:ComicSansMS, Comic Sans MS;}.cls-2{letter-spacing:0.02em;}.cls-3{letter-spacing:-0.02em;}</style></defs><text class="cls-1" transform="translate(10.1 40.46)">Kompetenzen <tspan x="0" y="8.87">besser</tspan><tspan class="cls-2" x="23.23" y="8.87"> </tspan><tspan x="25.59" y="8.87">bekannt </tspan><tspan x="0" y="17.74">machen und verteile</tspan><tspan class="cls-3" x="68.86" y="17.74">n</tspan></text><g id="g3"><path id="path5" d="M45.42,14.6c25.66-.39,46.67,13.76,47,31.62.13,8.4-4.37,16.13-11.83,22A19.15,19.15,0,0,0,83,74.4c4.9,7.9,16.59,14.28,16.59,14.28s-17.92-9-31-13.69a62.64,62.64,0,0,1-22.15,4.27C20.76,79.66-.26,65.5-.53,47.65s20.3-32.65,46-33m0,2.58C21.27,17.55,1.79,31.2,2,47.61S22.18,77.06,46.37,76.69A60.79,60.79,0,0,0,67.61,72.6l.9-.36.92.33c4,1.45,8.45,3.27,12.69,5.11A21.62,21.62,0,0,1,78,68.76l-.34-1.57,1.26-1c7.11-5.58,11-12.66,10.85-19.93-.25-16.41-20.14-29.45-44.33-29.08Z"/></g></svg>