<svg id="Ebene_1" data-name="Ebene 1" xmlns="http://www.w3.org/2000/svg" viewBox="0 0 100 100"><defs><style>.cls-1{font-size:12.17px;font-family:ComicSansMS, Comic Sans MS;}</style></defs><text class="cls-1" transform="translate(7.97 50)">Bessere <tspan x="0" y="14.61">Vorbereitung</tspan></text><g id="g3"><path id="path5" d="M41.92,88.12C16.42,85.28-2.65,68.6-.68,50.85S23.56,21,49.05,23.84A62.78,62.78,0,0,1,70.69,30.2c13.48-3.44,32.17-10.68,32.17-10.68S90.62,24.76,85,32.16a19.54,19.54,0,0,0-3,5.92c6.88,6.55,10.62,14.67,9.69,23-2,17.74-24.24,29.84-49.74,27m.28-2.56c24,2.67,45.09-8.43,46.9-24.74.8-7.23-2.36-14.64-8.9-20.87L79,38.84l.49-1.54a22.24,22.24,0,0,1,3.42-6.71c.47-.61,1-1.2,1.51-1.78-4.4,1.43-9,2.83-13.12,3.88l-1,.24-.86-.44A60.61,60.61,0,0,0,48.77,26.4C24.72,23.73,3.69,34.83,1.87,51.14S18.16,82.89,42.2,85.56Z"/></g></svg>